<mxfile host="app.diagrams.net" agent="Mozilla/5.0 (Windows NT 10.0; Win64; x64) AppleWebKit/537.36 (KHTML, like Gecko) Chrome/136.0.0.0 Safari/537.36" version="27.1.1">
  <diagram id="8Bf3zqWQdtoGfe-vdOJR" name="Page-1">
    <mxGraphModel dx="2438" dy="944" grid="1" gridSize="10" guides="1" tooltips="1" connect="1" arrows="1" fold="1" page="1" pageScale="1" pageWidth="850" pageHeight="1100" math="0" shadow="0">
      <root>
        <mxCell id="0" />
        <mxCell id="1" parent="0" />
        <mxCell id="Egqp7ZFnGGNLeDV7Vh-X-24" value="" style="rounded=0;whiteSpace=wrap;html=1;fillColor=none;" parent="1" vertex="1">
          <mxGeometry x="219.5" y="20" width="410" height="1030" as="geometry" />
        </mxCell>
        <mxCell id="Egqp7ZFnGGNLeDV7Vh-X-1" value="&lt;font style=&quot;font-size: 14px;&quot;&gt;ADMIN&lt;/font&gt;" style="shape=umlActor;verticalLabelPosition=bottom;verticalAlign=top;html=1;outlineConnect=0;" parent="1" vertex="1">
          <mxGeometry x="674" y="496" width="60" height="120" as="geometry" />
        </mxCell>
        <mxCell id="Egqp7ZFnGGNLeDV7Vh-X-2" value="&lt;font style=&quot;font-size: 14px;&quot;&gt;PENGUNJUNG&amp;nbsp; WEB&lt;/font&gt;" style="shape=umlActor;verticalLabelPosition=bottom;verticalAlign=top;html=1;outlineConnect=0;" parent="1" vertex="1">
          <mxGeometry x="91" y="494" width="60" height="120" as="geometry" />
        </mxCell>
        <mxCell id="Egqp7ZFnGGNLeDV7Vh-X-5" value="&lt;font style=&quot;font-size: 14px;&quot;&gt;Pemetaan Kecamatan&lt;br&gt;Rawan Curas dan Curanmor&lt;/font&gt;" style="ellipse;whiteSpace=wrap;html=1;" parent="1" vertex="1">
          <mxGeometry x="329.5" y="160" width="190" height="90" as="geometry" />
        </mxCell>
        <mxCell id="Egqp7ZFnGGNLeDV7Vh-X-8" value="&lt;font style=&quot;font-size: 14px;&quot;&gt;Halaman Utama&lt;/font&gt;" style="ellipse;whiteSpace=wrap;html=1;" parent="1" vertex="1">
          <mxGeometry x="352.5" y="50" width="145" height="90" as="geometry" />
        </mxCell>
        <mxCell id="Egqp7ZFnGGNLeDV7Vh-X-10" value="&lt;font style=&quot;font-size: 14px;&quot;&gt;Fitur Login&lt;/font&gt;" style="ellipse;whiteSpace=wrap;html=1;" parent="1" vertex="1">
          <mxGeometry x="352.5" y="270" width="145" height="90" as="geometry" />
        </mxCell>
        <mxCell id="Egqp7ZFnGGNLeDV7Vh-X-11" value="&lt;font style=&quot;font-size: 14px;&quot;&gt;Fitur Dashboard&lt;/font&gt;" style="ellipse;whiteSpace=wrap;html=1;" parent="1" vertex="1">
          <mxGeometry x="352.5" y="380" width="145" height="90" as="geometry" />
        </mxCell>
        <mxCell id="Egqp7ZFnGGNLeDV7Vh-X-12" value="&lt;font style=&quot;font-size: 14px;&quot;&gt;Fitur Data Kecamatan&lt;/font&gt;" style="ellipse;whiteSpace=wrap;html=1;" parent="1" vertex="1">
          <mxGeometry x="352.5" y="490" width="145" height="90" as="geometry" />
        </mxCell>
        <mxCell id="Egqp7ZFnGGNLeDV7Vh-X-13" value="&lt;font style=&quot;font-size: 14px;&quot;&gt;Fitur Data Klaster&lt;/font&gt;" style="ellipse;whiteSpace=wrap;html=1;" parent="1" vertex="1">
          <mxGeometry x="352.5" y="600" width="145" height="90" as="geometry" />
        </mxCell>
        <mxCell id="Egqp7ZFnGGNLeDV7Vh-X-16" value="" style="endArrow=none;html=1;rounded=0;exitX=1;exitY=0.3333333333333333;exitDx=0;exitDy=0;exitPerimeter=0;entryX=0;entryY=0.5;entryDx=0;entryDy=0;" parent="1" source="Egqp7ZFnGGNLeDV7Vh-X-2" target="Egqp7ZFnGGNLeDV7Vh-X-8" edge="1">
          <mxGeometry width="50" height="50" relative="1" as="geometry">
            <mxPoint x="187" y="525" as="sourcePoint" />
            <mxPoint x="362" y="215" as="targetPoint" />
          </mxGeometry>
        </mxCell>
        <mxCell id="Egqp7ZFnGGNLeDV7Vh-X-18" value="" style="endArrow=none;html=1;rounded=0;entryX=0;entryY=0.5;entryDx=0;entryDy=0;exitX=1;exitY=0.3333333333333333;exitDx=0;exitDy=0;exitPerimeter=0;" parent="1" source="Egqp7ZFnGGNLeDV7Vh-X-2" target="Egqp7ZFnGGNLeDV7Vh-X-5" edge="1">
          <mxGeometry width="50" height="50" relative="1" as="geometry">
            <mxPoint x="187" y="525" as="sourcePoint" />
            <mxPoint x="372" y="335" as="targetPoint" />
          </mxGeometry>
        </mxCell>
        <mxCell id="Egqp7ZFnGGNLeDV7Vh-X-19" value="" style="endArrow=none;html=1;rounded=0;exitX=1;exitY=0.5;exitDx=0;exitDy=0;entryX=0;entryY=0.3333333333333333;entryDx=0;entryDy=0;entryPerimeter=0;" parent="1" source="Egqp7ZFnGGNLeDV7Vh-X-5" target="Egqp7ZFnGGNLeDV7Vh-X-1" edge="1">
          <mxGeometry width="50" height="50" relative="1" as="geometry">
            <mxPoint x="187" y="525" as="sourcePoint" />
            <mxPoint x="362" y="215" as="targetPoint" />
          </mxGeometry>
        </mxCell>
        <mxCell id="Egqp7ZFnGGNLeDV7Vh-X-20" value="" style="endArrow=none;html=1;rounded=0;entryX=0;entryY=0.3333333333333333;entryDx=0;entryDy=0;entryPerimeter=0;exitX=1;exitY=0.5;exitDx=0;exitDy=0;" parent="1" source="Egqp7ZFnGGNLeDV7Vh-X-10" target="Egqp7ZFnGGNLeDV7Vh-X-1" edge="1">
          <mxGeometry width="50" height="50" relative="1" as="geometry">
            <mxPoint x="537" y="640" as="sourcePoint" />
            <mxPoint x="677" y="546" as="targetPoint" />
          </mxGeometry>
        </mxCell>
        <mxCell id="Egqp7ZFnGGNLeDV7Vh-X-21" value="" style="endArrow=none;html=1;rounded=0;exitX=1;exitY=0.5;exitDx=0;exitDy=0;entryX=0;entryY=0.3333333333333333;entryDx=0;entryDy=0;entryPerimeter=0;" parent="1" source="Egqp7ZFnGGNLeDV7Vh-X-11" target="Egqp7ZFnGGNLeDV7Vh-X-1" edge="1">
          <mxGeometry width="50" height="50" relative="1" as="geometry">
            <mxPoint x="507" y="655" as="sourcePoint" />
            <mxPoint x="647" y="520" as="targetPoint" />
          </mxGeometry>
        </mxCell>
        <mxCell id="Egqp7ZFnGGNLeDV7Vh-X-22" value="" style="endArrow=none;html=1;rounded=0;exitX=1;exitY=0.5;exitDx=0;exitDy=0;entryX=0;entryY=0.3333333333333333;entryDx=0;entryDy=0;entryPerimeter=0;" parent="1" source="Egqp7ZFnGGNLeDV7Vh-X-12" target="Egqp7ZFnGGNLeDV7Vh-X-1" edge="1">
          <mxGeometry width="50" height="50" relative="1" as="geometry">
            <mxPoint x="517" y="665" as="sourcePoint" />
            <mxPoint x="667" y="540" as="targetPoint" />
          </mxGeometry>
        </mxCell>
        <mxCell id="Egqp7ZFnGGNLeDV7Vh-X-23" value="" style="endArrow=none;html=1;rounded=0;exitX=1;exitY=0.5;exitDx=0;exitDy=0;entryX=0;entryY=0.3333333333333333;entryDx=0;entryDy=0;entryPerimeter=0;" parent="1" source="Egqp7ZFnGGNLeDV7Vh-X-13" target="Egqp7ZFnGGNLeDV7Vh-X-1" edge="1">
          <mxGeometry width="50" height="50" relative="1" as="geometry">
            <mxPoint x="527" y="675" as="sourcePoint" />
            <mxPoint x="657" y="540" as="targetPoint" />
          </mxGeometry>
        </mxCell>
        <mxCell id="vlM-pndUml6PNdjuM8nI-3" value="&lt;font style=&quot;font-size: 14px;&quot;&gt;Fitur Data &lt;br&gt;Kasus Curas&lt;/font&gt;" style="ellipse;whiteSpace=wrap;html=1;" vertex="1" parent="1">
          <mxGeometry x="352.5" y="710" width="145" height="90" as="geometry" />
        </mxCell>
        <mxCell id="vlM-pndUml6PNdjuM8nI-4" value="&lt;font style=&quot;font-size: 14px;&quot;&gt;Fitur Data &lt;br&gt;Kasus Curanmor&lt;/font&gt;" style="ellipse;whiteSpace=wrap;html=1;" vertex="1" parent="1">
          <mxGeometry x="352.5" y="820" width="145" height="90" as="geometry" />
        </mxCell>
        <mxCell id="vlM-pndUml6PNdjuM8nI-6" value="&lt;font style=&quot;font-size: 14px;&quot;&gt;Fitur Data &lt;br&gt;Detail Perhitungan K-Means&lt;/font&gt;" style="ellipse;whiteSpace=wrap;html=1;" vertex="1" parent="1">
          <mxGeometry x="332.5" y="930" width="185" height="90" as="geometry" />
        </mxCell>
        <mxCell id="vlM-pndUml6PNdjuM8nI-13" value="" style="endArrow=none;html=1;rounded=0;exitX=1;exitY=0.5;exitDx=0;exitDy=0;entryX=0;entryY=0.3333333333333333;entryDx=0;entryDy=0;entryPerimeter=0;" edge="1" parent="1" source="vlM-pndUml6PNdjuM8nI-3" target="Egqp7ZFnGGNLeDV7Vh-X-1">
          <mxGeometry width="50" height="50" relative="1" as="geometry">
            <mxPoint x="661" y="799" as="sourcePoint" />
            <mxPoint x="837" y="690" as="targetPoint" />
          </mxGeometry>
        </mxCell>
        <mxCell id="vlM-pndUml6PNdjuM8nI-14" value="" style="endArrow=none;html=1;rounded=0;entryX=0;entryY=0.3333333333333333;entryDx=0;entryDy=0;entryPerimeter=0;exitX=1;exitY=0.5;exitDx=0;exitDy=0;" edge="1" parent="1" source="vlM-pndUml6PNdjuM8nI-4" target="Egqp7ZFnGGNLeDV7Vh-X-1">
          <mxGeometry width="50" height="50" relative="1" as="geometry">
            <mxPoint x="637" y="749" as="sourcePoint" />
            <mxPoint x="813" y="640" as="targetPoint" />
          </mxGeometry>
        </mxCell>
        <mxCell id="vlM-pndUml6PNdjuM8nI-15" value="" style="endArrow=none;html=1;rounded=0;exitX=1;exitY=0.5;exitDx=0;exitDy=0;entryX=0;entryY=0.3333333333333333;entryDx=0;entryDy=0;entryPerimeter=0;" edge="1" parent="1" source="vlM-pndUml6PNdjuM8nI-6" target="Egqp7ZFnGGNLeDV7Vh-X-1">
          <mxGeometry width="50" height="50" relative="1" as="geometry">
            <mxPoint x="558" y="969" as="sourcePoint" />
            <mxPoint x="697" y="700" as="targetPoint" />
          </mxGeometry>
        </mxCell>
      </root>
    </mxGraphModel>
  </diagram>
</mxfile>
